{"title":"El Marginal S02E07 WEB 1080p H264 AAC","magnet":"magnet:?xt=urn:btih:a37c569d9a6e6ed108bc576d8c4bb394e5c86811&dn=El+Marginal+S02E07+WEB+1080p+H264+AAC&tr=udp%3A%2F%2Ftracker.leechers-paradise.org%3A6969&tr=udp%3A%2F%2Fzer0day.ch%3A1337&tr=udp%3A%2F%2Fopen.demonii.com%3A1337&tr=udp%3A%2F%2Ftracker.coppersurfer.tk%3A6969&tr=udp%3A%2F%2Fexodus.desync.com%3A6969","uploader":"SharkillerARG","categoryP":"video","categoryS":"hd___tv_shows","size":"1946900355","seeders":"9","leechers":"4","description":"P&#xE1;gina Web: https://www.cont.ar/serie/d259ad2c-fde6-45db-9a23-f8ce1f3b2faa\r\n\r\nGeneral\r\nUnique ID                   : 239922803626601480904738401390940580256 (0xB47F7380D52BFB91C704A818AECAE9A0)\r\nComplete name               : El.Marginal.S02E07.1080p.WEB.H264.AAC.mkv\r\nFormat                      : Matroska\r\nFormat version              : Version 4 / Version 2\r\nFile size                   : 1.81 GiB\r\nDuration                    : 53 min 58 s\r\nOverall bit rate            : 4 809 kb/s\r\nEncoded date                : UTC 2018-08-29 03:52:08\r\nWriting application         : mkvmerge v26.0.0 (&apos;In The Game&apos;) 64-bit\r\nWriting library             : libebml v1.3.6 + libmatroska v1.4.9\r\n\r\nVideo\r\nID                          : 1\r\nFormat                      : AVC\r\nFormat/Info                 : Advanced Video Codec\r\nFormat profile              : High@L5\r\nFormat settings             : CABAC / 5 Ref Frames\r\nFormat settings, CABAC      : Yes\r\nFormat settings, ReFrames   : 5 frames\r\nCodec ID                    : V_MPEG4/ISO/AVC\r\nDuration                    : 53 min 58 s\r\nBit rate                    : 4 681 kb/s\r\nWidth                       : 1 920 pixels\r\nHeight                      : 1 080 pixels\r\nDisplay aspect ratio        : 16:9\r\nFrame rate mode             : Constant\r\nFrame rate                  : 25.000 FPS\r\nColor space                 : YUV\r\nChroma subsampling          : 4:2:0\r\nBit depth                   : 8 bits\r\nScan type                   : Progressive\r\nBits/(Pixel*Frame)          : 0.090\r\nStream size                 : 1.77 GiB (97%)\r\nLanguage                    : Spanish\r\nDefault                     : Yes\r\nForced                      : No\r\n\r\nAudio\r\nID                          : 2\r\nFormat                      : AAC\r\nFormat/Info                 : Advanced Audio Codec\r\nFormat profile              : LC\r\nCodec ID                    : A_AAC-2\r\nDuration                    : 53 min 58 s\r\nBit rate                    : 125 kb/s\r\nChannel(s)                  : 2 channels\r\nChannel positions           : Front: L R\r\nSampling rate               : 48.0 kHz\r\nFrame rate                  : 46.875 FPS (1024 SPF)\r\nCompression mode            : Lossy\r\nStream size                 : 48.4 MiB (3%)\r\nLanguage                    : Spanish\r\nDefault                     : Yes\r\nForced                      : No","last_updated":"2018-08-29T12:08:45.108Z","parsed":{"xt":"urn:btih:a37c569d9a6e6ed108bc576d8c4bb394e5c86811","dn":"El Marginal S02E07 WEB 1080p H264 AAC","tr":["udp://exodus.desync.com:6969","udp://open.demonii.com:1337","udp://tracker.coppersurfer.tk:6969","udp://tracker.leechers-paradise.org:6969","udp://zer0day.ch:1337"],"infoHash":"a37c569d9a6e6ed108bc576d8c4bb394e5c86811","infoHashBuffer":{"type":"Buffer","data":[163,124,86,157,154,110,110,209,8,188,87,109,140,75,179,148,229,200,104,17]},"name":"El Marginal S02E07 WEB 1080p H264 AAC","announce":["udp://exodus.desync.com:6969","udp://open.demonii.com:1337","udp://tracker.coppersurfer.tk:6969","udp://tracker.leechers-paradise.org:6969","udp://zer0day.ch:1337"],"urlList":[]}}